<svg width="327" height="542" viewBox="0 0 327 542" fill="none" xmlns="http://www.w3.org/2000/svg">
<path d="M432.748 438.917C452.021 424.912 418.105 417.472 398.737 415.503C160.518 391.28 95.8965 264.972 90.5284 213.949C85.1603 162.927 84.752 132.364 127.458 105.012C170.164 77.6592 183.635 83.7246 246.439 124.153C309.242 164.582 296.846 205.582 302.881 273.107C307.709 327.127 329.145 295.734 339.26 273.284C353.645 187.41 312.683 126.976 290.403 107.494C269.246 88.5171 213.543 50.6103 159.986 50.7989C106.428 50.9876 74.8327 91.4432 65.7297 111.647C50.3605 147.258 32.3978 235.977 83.5009 305.972C147.38 393.465 229.39 418.239 288.159 440.649C346.928 463.06 408.657 456.424 432.748 438.917Z" fill="#C37FE3"/>
</svg>
