<svg width="87" height="302" viewBox="0 0 87 302" fill="none" xmlns="http://www.w3.org/2000/svg">
<path d="M-128.707 285.5C-131.726 311.195 -145.059 301.244 -151.348 293.057C-192.858 219.372 -170.216 166.47 -140.028 141.909C-109.839 117.347 -70.2166 155.134 -55.1223 170.249C-43.0469 182.341 -16.1288 182.845 -4.17917 181.585C44.8772 192.921 54.3112 98.4533 54.3112 66.3342V0.206718C62.4872 -1.05285 79.9715 2.85182 84.4997 28.5471C89.028 54.2423 86.3865 93.415 84.4997 109.789C80.7262 132.462 61.4809 184.986 14.6887 213.704C-32.1036 242.422 -73.9902 210.555 -89.0845 191.032C-97.2605 179.066 -118.896 162.314 -140.028 191.032C-161.16 219.75 -141.285 265.976 -128.707 285.5Z" fill="#782BD0"/>
</svg>
