<svg width="154" height="246" viewBox="0 0 154 246" fill="none" xmlns="http://www.w3.org/2000/svg">
<path d="M-93.3528 43.9196C-96.9061 20.3492 -84.9631 30.1702 -78.5474 38.027C-75.5863 45.3927 -63.7419 73.0879 -40.0532 124.943C-10.4423 189.761 26.5714 203.019 48.7796 211.858C70.9878 220.697 66.5461 208.912 66.5461 192.707C66.5461 176.502 26.5714 70.4362 23.6103 64.5437C20.6492 58.6511 13.2465 14.457 33.9741 2.6718C54.7018 -9.11337 73.9489 20.3496 100.599 46.8662C121.919 68.0795 130.21 58.6514 131.69 51.2856C146.496 39.5005 152.418 43.9196 153.898 51.2856C155.379 58.6517 140.573 91.0606 116.885 95.48C97.9337 99.0156 70.4942 62.5795 59.1434 43.9196C41.3768 49.8122 51.7407 49.8125 48.7796 63.0708C45.8185 76.3291 91.7154 175.03 94.6765 208.912C97.6376 242.795 68.0267 242.795 59.1434 245.741C50.2601 248.687 -7.48118 226.59 -40.0532 175.03C-72.6252 123.47 -88.9112 73.3825 -93.3528 43.9196Z" fill="#6AD9B0"/>
</svg>
